<?xml version="1.0" encoding="utf-8"?>
<!-- Generator: Adobe Illustrator 21.1.0, SVG Export Plug-In . SVG Version: 6.00 Build 0)  -->
<svg version="1.1" id="Layer_1" xmlns="http://www.w3.org/2000/svg" xmlns:xlink="http://www.w3.org/1999/xlink" x="0px" y="0px"
	 viewBox="0 0 1920 1080" style="enable-background:new 0 0 1920 1080;" xml:space="preserve">
<style type="text/css">
	.st0{fill:none;stroke:#000000;stroke-width:8;stroke-miterlimit:10;}
	.st1{fill:none;stroke:#FCEE21;stroke-width:8;stroke-miterlimit:10;}
	.st2{fill:none;stroke:#006837;stroke-width:8;stroke-miterlimit:10;}
	.st3{fill:#FFFFFF;stroke:#000000;stroke-width:4;stroke-miterlimit:10;}
	.st4{fill:none;stroke:#FF0000;stroke-width:8;stroke-miterlimit:10;}
	.st5{fill:none;stroke:#ED1C24;stroke-width:8;stroke-miterlimit:10;}
</style>
<g>
	<path class="st0" d="M84,870.5h334.6h3.9c20.5,0,40.2-8.1,54.7-22.6l0,0l146.4-146.4l0,0c9.9-9.9,23.3-15.4,37.2-15.4h5.4h235.7
		h1.5c14.7,0,28.4-7.5,36.4-19.8l0,0l192.8-298.5v0c7.1-11,19.3-17.7,32.5-17.7h7.1H1340"/>
	<line class="st0" x1="1336" y1="350" x2="1336" y2="328"/>
	<line class="st0" x1="1223" y1="350" x2="1223" y2="328"/>
	<line class="st0" x1="1125.1" y1="372.2" x2="1106.5" y2="360.4"/>
	<line class="st0" x1="1064.5" y1="467.6" x2="1045.9" y2="455.8"/>
	<line class="st0" x1="1008.1" y1="556.2" x2="989.5" y2="544.4"/>
	<line class="st0" x1="947.5" y1="651.6" x2="928.9" y2="639.8"/>
	<line class="st0" x1="849" y1="687" x2="849" y2="665"/>
	<line class="st0" x1="736" y1="687" x2="736" y2="665"/>
	<line class="st0" x1="601.1" y1="720.7" x2="585.5" y2="705.2"/>
	<line class="st0" x1="521.5" y1="800.8" x2="505.9" y2="785.3"/>
	<line class="st0" x1="405" y1="867" x2="405" y2="845"/>
	<line class="st0" x1="292" y1="867" x2="292" y2="845"/>
	<line class="st0" x1="177" y1="867" x2="177" y2="845"/>
	<line class="st0" x1="88" y1="873" x2="88" y2="851"/>
</g>
<g>
	<path class="st1" d="M74,290h573.6h4.2c19.3,0,37.9,7.7,51.5,21.4v0l243,243l0,0c11.9,11.9,28.2,18.7,45.1,18.7h2.7H1233l0,0
		c23.1,0,45.2-9.2,61.5-25.5l6.5-6.5l232-232"/>
	<line class="st1" x1="78" y1="290" x2="78" y2="268"/>
	<line class="st1" x1="209" y1="290" x2="209" y2="268"/>
	<line class="st1" x1="326" y1="290" x2="326" y2="268"/>
	<line class="st1" x1="487" y1="290" x2="487" y2="268"/>
	<line class="st1" x1="611" y1="290" x2="611" y2="268"/>
	<line class="st1" x1="741.3" y1="346" x2="756.9" y2="330.4"/>
	<line class="st1" x1="829.1" y1="433.6" x2="844.7" y2="418"/>
	<line class="st1" x1="1065" y1="572" x2="1065" y2="550"/>
	<line class="st1" x1="1189" y1="572" x2="1189" y2="550"/>
	<line class="st1" x1="1330.3" y1="511.9" x2="1314.6" y2="496.4"/>
	<line class="st1" x1="1417.4" y1="423.6" x2="1401.7" y2="408.1"/>
	<line class="st1" x1="1532.4" y1="313.6" x2="1516.7" y2="298.1"/>
</g>
<g>
	<line class="st2" x1="74" y1="479" x2="419" y2="479"/>
	<line class="st2" x1="78" y1="479" x2="78" y2="457"/>
	<line class="st2" x1="415" y1="479" x2="415" y2="457"/>
	<line class="st2" x1="246" y1="479" x2="246" y2="457"/>
</g>
<circle class="st3" cx="689" cy="691" r="17"/>
<path class="st4" d="M475.8,879"/>
<path class="st5" d="M1431.2,629.3"/>
<g>
	<path class="st5" d="M78.3,629.3h129h0.2c12.7,0,24.8,5,33.8,14h0l107.5,107.5l157,157v0c8.3,8.3,19.6,13,31.4,13h5.1h279"/>
	<line class="st4" x1="82.3" y1="606.3" x2="82.3" y2="628.3"/>
	<line class="st4" x1="209" y1="606" x2="209" y2="628"/>
	<line class="st4" x1="274.4" y1="644" x2="258.8" y2="659.5"/>
	<line class="st4" x1="342.7" y1="713" x2="327.1" y2="728.5"/>
	<line class="st4" x1="401.7" y1="772" x2="386.1" y2="787.5"/>
	<line class="st4" x1="556.3" y1="898.3" x2="556.3" y2="920.3"/>
	<line class="st4" x1="683.3" y1="898.3" x2="683.3" y2="920.3"/>
	<line class="st4" x1="817" y1="898" x2="817" y2="920"/>
	<path class="st5" d="M1397.3,643.3L1397.3,643.3l-107.5,107.5l-157,157v0c-8.3,8.3-19.6,13-31.4,13h-5.1h-279"/>
	<line class="st4" x1="1379.2" y1="630" x2="1394.9" y2="645.5"/>
	<line class="st4" x1="1295.8" y1="713" x2="1311.4" y2="728.5"/>
	<line class="st4" x1="1236.8" y1="772" x2="1252.4" y2="787.5"/>
	<line class="st4" x1="938" y1="922" x2="938" y2="944"/>
</g>
</svg>
