<svg id="Layer_1" data-name="Layer 1" xmlns="http://www.w3.org/2000/svg" viewBox="0 0 1461.83 701">
  <defs>
    <style>
      .cls-1, .cls-2, .cls-3, .cls-4, .cls-5, .cls-6 {
        fill: none;
        stroke-miterlimit: 10;
        stroke-width: 8px;
      }

      .cls-1 {
        stroke: #000;
      }

      .cls-2 {
        stroke: aqua;
      }

      .cls-3 {
        stroke: #ed1c24;
      }

      .cls-4 {
        stroke: red;
      }

      .cls-5 {
        stroke: #fcee21;
      }

      .cls-6 {
        stroke: #006837;
      }
    </style>
  </defs>
  <title>sad</title>
  <g>
    <path class="cls-1" d="M84,870.5H422.48a77.31,77.31,0,0,0,54.66-22.64h0L623.57,701.43h0A52.67,52.67,0,0,1,660.82,686H903.41a43.31,43.31,0,0,0,36.38-19.81h0l192.78-298.51h0A38.65,38.65,0,0,1,1165,350h175" transform="translate(-74 -187)"/>
    <line class="cls-1" x1="1262" y1="163" x2="1262" y2="141"/>
    <line class="cls-1" x1="1149" y1="163" x2="1149" y2="141"/>
    <line class="cls-1" x1="1051.09" y1="185.21" x2="1032.52" y2="173.41"/>
    <line class="cls-1" x1="990.48" y1="280.59" x2="971.91" y2="268.79"/>
    <line class="cls-1" x1="934.09" y1="369.21" x2="915.52" y2="357.41"/>
    <line class="cls-1" x1="873.48" y1="464.59" x2="854.91" y2="452.79"/>
    <line class="cls-1" x1="775" y1="500" x2="775" y2="478"/>
    <line class="cls-1" x1="662" y1="500" x2="662" y2="478"/>
    <line class="cls-1" x1="527.12" y1="533.66" x2="511.51" y2="518.16"/>
    <line class="cls-1" x1="447.49" y1="613.84" x2="431.88" y2="598.34"/>
    <line class="cls-1" x1="331" y1="680" x2="331" y2="658"/>
    <line class="cls-1" x1="218" y1="680" x2="218" y2="658"/>
    <line class="cls-1" x1="103" y1="680" x2="103" y2="658"/>
    <line class="cls-1" x1="14" y1="686" x2="14" y2="664"/>
  </g>
  <g>
    <path class="cls-2" d="M1528,884l-532.57-5.5h-3.91a77.31,77.31,0,0,1-54.66-22.64h0L790.43,709.43h0A52.67,52.67,0,0,0,753.18,694H510.59a43.31,43.31,0,0,1-36.38-19.81h0L281.42,375.68h0A38.65,38.65,0,0,0,249,358H74" transform="translate(-74 -187)"/>
    <line class="cls-2" x1="4" y1="171" x2="4" y2="149"/>
    <line class="cls-2" x1="117" y1="171" x2="117" y2="149"/>
    <line class="cls-2" x1="214.91" y1="193.21" x2="233.48" y2="181.41"/>
    <line class="cls-2" x1="275.52" y1="288.59" x2="294.09" y2="276.79"/>
    <line class="cls-2" x1="331.91" y1="377.21" x2="350.48" y2="365.41"/>
    <line class="cls-2" x1="392.52" y1="472.59" x2="411.09" y2="460.79"/>
    <line class="cls-2" x1="491" y1="508" x2="491" y2="486"/>
    <line class="cls-2" x1="604" y1="508" x2="604" y2="486"/>
    <line class="cls-2" x1="738.88" y1="541.66" x2="754.49" y2="526.16"/>
    <line class="cls-2" x1="818.51" y1="621.84" x2="834.12" y2="606.34"/>
    <line class="cls-2" x1="935" y1="692" x2="935" y2="670"/>
    <line class="cls-2" x1="1048" y1="692" x2="1048" y2="670"/>
    <line class="cls-2" x1="1288" y1="694" x2="1288" y2="672"/>
    <line class="cls-2" x1="1450" y1="697" x2="1450" y2="675"/>
  </g>
  <g>
    <path class="cls-3" d="M84.25,585.25h129.2a47.8,47.8,0,0,1,33.8,14h0l107.5,107.5,157,157h0a44.38,44.38,0,0,0,31.38,13H827.25" transform="translate(-74 -187)"/>
    <line class="cls-4" x1="14.25" y1="375.25" x2="14.25" y2="397.25"/>
    <line class="cls-4" x1="111.25" y1="375.25" x2="111.25" y2="397.25"/>
    <line class="cls-4" x1="206.44" y1="413.05" x2="190.81" y2="428.53"/>
    <line class="cls-4" x1="274.69" y1="481.97" x2="259.06" y2="497.45"/>
    <line class="cls-4" x1="333.69" y1="540.97" x2="318.06" y2="556.45"/>
    <line class="cls-4" x1="403.69" y1="612.97" x2="388.06" y2="628.45"/>
    <line class="cls-4" x1="488.25" y1="667.25" x2="488.25" y2="689.25"/>
    <line class="cls-4" x1="615.25" y1="667.25" x2="615.25" y2="689.25"/>
    <line class="cls-4" x1="749.25" y1="667.25" x2="749.25" y2="689.25"/>
  </g>
  <g>
    <path class="cls-5" d="M74,290H651.8a72.9,72.9,0,0,1,51.55,21.35h0l243,243h0A63.71,63.71,0,0,0,991.39,573H1233a86.91,86.91,0,0,0,61.46-25.46L1301,541l232-232" transform="translate(-74 -187)"/>
    <line class="cls-5" x1="4" y1="103" x2="4" y2="81"/>
    <line class="cls-5" x1="135" y1="103" x2="135" y2="81"/>
    <line class="cls-5" x1="252" y1="103" x2="252" y2="81"/>
    <line class="cls-5" x1="413" y1="103" x2="413" y2="81"/>
    <line class="cls-5" x1="537" y1="103" x2="537" y2="81"/>
    <line class="cls-5" x1="667.33" y1="159.02" x2="682.86" y2="143.44"/>
    <line class="cls-5" x1="755.14" y1="246.56" x2="770.67" y2="230.98"/>
    <line class="cls-5" x1="991" y1="385" x2="991" y2="363"/>
    <line class="cls-5" x1="1115" y1="385" x2="1115" y2="363"/>
    <line class="cls-5" x1="1256.31" y1="324.88" x2="1240.64" y2="309.43"/>
    <line class="cls-5" x1="1343.36" y1="236.57" x2="1327.69" y2="221.12"/>
    <line class="cls-5" x1="1458.36" y1="126.57" x2="1442.69" y2="111.12"/>
  </g>
  <g>
    <line class="cls-6" x1="4" y1="22" x2="349" y2="22"/>
    <line class="cls-6" x1="8" y1="22" x2="8"/>
    <line class="cls-6" x1="345" y1="22" x2="345"/>
    <line class="cls-6" x1="176" y1="22" x2="176"/>
  </g>
</svg>
