<!-- The SVG in a seperate file !-->
<svg id="Layer_1" data-name="Layer 1" xmlns="http://www.w3.org/2000/svg" viewBox="0 0 1465.88 765">
  <defs>
    <style>
      .line-extended-learning, .line-trip, .line-subject-help, .line-subject-help, .line-performance, .line-outdoor {
        fill: none;
        stroke-miterlimit: 10;
        stroke-width: 8px;
      }

      .line-extended-learning {
        stroke: #000;
      }

      .line-trip {
        stroke: aqua;
      }

      .line-subject-help {
        stroke: #ed1c24;
      }

      .line-performance {
        stroke: #fcee21;
      }

      .line-outdoor {
        stroke: #006837;
      }
    </style>
  </defs>
  <title>version1</title>
  <path class="line line-extended-learning" d="M1340,670.5H1001.52a77.31,77.31,0,0,1-54.66-22.64h0L800.43,501.43h0A52.67,52.67,0,0,0,763.18,486H520.59a43.31,43.31,0,0,1-36.38-19.81h0L291.42,167.68h0A38.65,38.65,0,0,0,259,150H84" transform="translate(-83.95 -128)"/>
  <line class="norm line-extended-learning" x1="4.05" y1="22" x2="4.05"/>
  <line class="norm line-extended-learning" x1="117.05" y1="22" x2="117.05"/>
  <line class="norm line-extended-learning" x1="214.96" y1="44.21" x2="233.53" y2="32.41"/>
  <line class="norm line-extended-learning" x1="275.57" y1="139.59" x2="294.14" y2="127.79"/>
  <line class="norm line-extended-learning" x1="331.96" y1="228.21" x2="350.53" y2="216.41"/>
  <line class="norm line-extended-learning" x1="392.57" y1="323.59" x2="411.14" y2="311.79"/>
  <line class="norm line-extended-learning" x1="491.05" y1="359" x2="491.05" y2="337"/>
  <line class="norm line-extended-learning" x1="604.05" y1="359" x2="604.05" y2="337"/>
  <line class="norm line-extended-learning" x1="738.93" y1="392.66" x2="754.54" y2="377.16"/>
  <line class="norm line-extended-learning" x1="818.56" y1="472.84" x2="834.17" y2="457.34"/>
  <line class="norm line-extended-learning" x1="935.05" y1="539" x2="935.05" y2="517"/>
  <line class="norm line-extended-learning" x1="1048.05" y1="539" x2="1048.05" y2="517"/>
  <line class="norm line-extended-learning" x1="1163.05" y1="539" x2="1163.05" y2="517"/>
  <path class="line line-trip" d="M84,737l532.57-6.5h3.91a77.31,77.31,0,0,0,54.66-22.64h0L821.57,561.43h0A52.67,52.67,0,0,1,858.82,546h242.59a43.31,43.31,0,0,0,36.38-19.81h0l192.78-298.51h0A38.65,38.65,0,0,1,1363,210h175" transform="translate(-83.95 -128)"/>
  <line class="norm line-trip" x1="1450.05" y1="82" x2="1450.05" y2="60"/>
  <line class="norm line-trip" x1="1337.05" y1="82" x2="1337.05" y2="60"/>
  <line class="norm line-trip" x1="1239.14" y1="104.21" x2="1220.57" y2="92.41"/>
  <line class="norm line-trip" x1="1178.53" y1="199.59" x2="1159.96" y2="187.79"/>
  <line class="norm line-trip" x1="1122.14" y1="288.21" x2="1103.57" y2="276.41"/>
  <line class="norm line-trip" x1="1061.53" y1="383.59" x2="1042.96" y2="371.79"/>
  <line class="norm line-trip" x1="963.05" y1="419" x2="963.05" y2="397"/>
  <line class="norm line-trip" x1="850.05" y1="419" x2="850.05" y2="397"/>
  <line class="norm line-trip" x1="715.17" y1="452.66" x2="699.56" y2="437.16"/>
  <line class="norm line-trip" x1="635.54" y1="532.84" x2="619.93" y2="517.34"/>
  <line class="norm line-trip" x1="519.05" y1="603" x2="519.05" y2="581"/>
  <line class="norm line-trip" x1="406.05" y1="603" x2="406.05" y2="581"/>
  <line class="norm line-trip" x1="291.05" y1="603" x2="291.05" y2="581"/>
  <line class="norm line-trip" x1="166.05" y1="605" x2="166.05" y2="583"/>
  <line class="norm line-trip" x1="4.05" y1="608" x2="4.05" y2="586"/>
  <path class="line line-subject-help" d="M934,150V279.2A47.8,47.8,0,0,1,920,313h0L812.5,420.5l-157,157h0a44.38,44.38,0,0,0-13,31.38V893" transform="translate(-83.95 -128)"/>
  <line class="norm line-subject-help" x1="873.05" y1="26" x2="851.05" y2="26"/>
  <line class="norm line-subject-help" x1="873.05" y1="123" x2="851.05" y2="123"/>
  <line class="norm line-subject-help" x1="835.25" y1="218.19" x2="819.77" y2="202.56"/>
  <line class="norm line-subject-help" x1="766.33" y1="286.44" x2="750.85" y2="270.81"/>
  <line class="norm line-subject-help" x1="707.33" y1="345.44" x2="691.85" y2="329.81"/>
  <line class="norm line-subject-help" x1="635.33" y1="415.44" x2="619.85" y2="399.81"/>
  <line class="norm line-subject-help" x1="581.05" y1="500" x2="559.05" y2="500"/>
  <line class="norm line-subject-help" x1="581.05" y1="627" x2="559.05" y2="627"/>
  <line class="norm line-subject-help" x1="581.05" y1="761" x2="559.05" y2="761"/>
  <path class="line line-performance" d="M88,322H665.8a72.9,72.9,0,0,1,51.55,21.35h0l243,243h0A63.71,63.71,0,0,0,1005.39,605H1247a86.91,86.91,0,0,0,61.46-25.46L1315,573l232-232" transform="translate(-83.95 -128)"/>
  <line class="norm line-performance" x1="8.05" y1="194" x2="8.05" y2="172"/>
  <line class="norm line-performance" x1="139.05" y1="194" x2="139.05" y2="172"/>
  <line class="norm line-performance" x1="256.05" y1="194" x2="256.05" y2="172"/>
  <line class="norm line-performance" x1="417.05" y1="194" x2="417.05" y2="172"/>
  <line class="norm line-performance" x1="541.05" y1="194" x2="541.05" y2="172"/>
  <line class="norm line-performance" x1="671.38" y1="250.02" x2="686.91" y2="234.44"/>
  <line class="norm line-performance" x1="759.19" y1="337.56" x2="774.72" y2="321.98"/>
  <line class="norm line-performance" x1="995.05" y1="476" x2="995.05" y2="454"/>
  <line class="norm line-performance" x1="1119.05" y1="476" x2="1119.05" y2="454"/>
  <line class="norm line-performance" x1="1260.36" y1="415.88" x2="1244.69" y2="400.43"/>
  <line class="norm line-performance" x1="1347.41" y1="327.57" x2="1331.74" y2="312.12"/>
  <line class="norm line-performance" x1="1462.41" y1="217.57" x2="1446.74" y2="202.12"/>
  <line class="line line-outdoor" x1="402.05" y1="22" x2="747.05" y2="22"/>
  <line class="norm line-outdoor" x1="406.05" y1="22" x2="406.05"/>
  <line class="norm line-outdoor" x1="743.05" y1="22" x2="743.05"/>
  <line class="norm line-outdoor" x1="574.05" y1="22" x2="574.05"/>
</svg>
