<?xml version="1.0" encoding="utf-8"?>
<!-- Generator: Adobe Illustrator 21.1.0, SVG Export Plug-In . SVG Version: 6.00 Build 0)  -->
<svg version="1.1" id="Layer_1" xmlns="http://www.w3.org/2000/svg" xmlns:xlink="http://www.w3.org/1999/xlink" x="0px" y="0px"
	 viewBox="0 0 1920 1080" style="enable-background:new 0 0 1920 1080;" xml:space="preserve">
<style type="text/css">
	.norm station line-extended-learning{fill:none;stroke:#000000;stroke-width:8;stroke-miterlimit:10;}
	.norm station line-trip{fill:none;stroke:#00FFFF;stroke-width:8;stroke-miterlimit:10;}
	.st2{fill:none;stroke:#ED1C24;stroke-width:8;stroke-miterlimit:10;}
	.norm station line-trip{fill:none;stroke:#FF0000;stroke-width:8;stroke-miterlimit:10;}
	.norm station line-performance{fill:none;stroke:#FCEE21;stroke-width:8;stroke-miterlimit:10;}
	.norm station line-outdoor{fill:none;stroke:#006837;stroke-width:8;stroke-miterlimit:10;}
</style>
<g>
	<path class="line line-extended-learning" d="M84,870.5h334.6h3.9c20.5,0,40.2-8.1,54.7-22.6l0,0l146.4-146.4l0,0c9.9-9.9,23.3-15.4,37.2-15.4h5.4h235.7
		h1.5c14.7,0,28.4-7.5,36.4-19.8l0,0l192.8-298.5v0c7.1-11,19.3-17.7,32.5-17.7h7.1H1340"/>
	<line class="norm station line-extended-learning" x1="1336" y1="350" x2="1336" y2="328"/>
	<line class="norm station line-extended-learning" x1="1223" y1="350" x2="1223" y2="328"/>
	<line class="norm station line-extended-learning" x1="1125.1" y1="372.2" x2="1106.5" y2="360.4"/>
	<line class="norm station line-extended-learning" x1="1064.5" y1="467.6" x2="1045.9" y2="455.8"/>
	<line class="norm station line-extended-learning" x1="1008.1" y1="556.2" x2="989.5" y2="544.4"/>
	<line class="norm station line-extended-learning" x1="947.5" y1="651.6" x2="928.9" y2="639.8"/>
	<line class="norm station line-extended-learning" x1="849" y1="687" x2="849" y2="665"/>
	<line class="norm station line-extended-learning" x1="736" y1="687" x2="736" y2="665"/>
	<line class="norm station line-extended-learning" x1="601.1" y1="720.7" x2="585.5" y2="705.2"/>
	<line class="norm station line-extended-learning" x1="521.5" y1="800.8" x2="505.9" y2="785.3"/>
	<line class="norm station line-extended-learning" x1="405" y1="867" x2="405" y2="845"/>
	<line class="norm station line-extended-learning" x1="292" y1="867" x2="292" y2="845"/>
	<line class="norm station line-extended-learning" x1="177" y1="867" x2="177" y2="845"/>
	<line class="norm station line-extended-learning" x1="88" y1="873" x2="88" y2="851"/>
</g>
<g>
	<path class="line line-trip" d="M1528,885l-532.6-6.5h-3.9c-20.5,0-40.2-8.1-54.7-22.6l0,0L790.4,709.4l0,0c-9.9-9.9-23.3-15.4-37.2-15.4h-5.4
		H512.1h-1.5c-14.7,0-28.4-7.5-36.4-19.8h0L281.4,375.7v0c-7.1-11-19.3-17.7-32.5-17.7h-7.1H74"/>
	<line class="norm station line-trip" x1="78" y1="358" x2="78" y2="336"/>
	<line class="norm station line-trip" x1="191" y1="358" x2="191" y2="336"/>
	<line class="norm station line-trip" x1="288.9" y1="380.2" x2="307.5" y2="368.4"/>
	<line class="norm station line-trip" x1="349.5" y1="475.6" x2="368.1" y2="463.8"/>
	<line class="norm station line-trip" x1="405.9" y1="564.2" x2="424.5" y2="552.4"/>
	<line class="norm station line-trip" x1="466.5" y1="659.6" x2="485.1" y2="647.8"/>
	<line class="norm station line-trip" x1="565" y1="695" x2="565" y2="673"/>
	<line class="norm station line-trip" x1="678" y1="695" x2="678" y2="673"/>
	<line class="norm station line-trip" x1="812.9" y1="728.7" x2="828.5" y2="713.2"/>
	<line class="norm station line-trip" x1="892.5" y1="808.8" x2="908.1" y2="793.3"/>
	<line class="norm station line-trip" x1="1009" y1="879" x2="1009" y2="857"/>
	<line class="norm station line-trip" x1="1122" y1="879" x2="1122" y2="857"/>
	<line class="norm station line-trip" x1="1362" y1="881" x2="1362" y2="859"/>
	<line class="norm station line-trip" x1="1524" y1="884" x2="1524" y2="862"/>
</g>
<g>
	<path class="line line-subject-help" d="M84.3,585.3h129h0.2c12.7,0,24.8,5,33.8,14h0l107.5,107.5l157,157v0c8.3,8.3,19.6,13,31.4,13h5.1h279"/>
	<line class="norm station line-trip" x1="88.3" y1="562.3" x2="88.3" y2="584.3"/>
	<line class="norm station line-trip" x1="185.3" y1="562.3" x2="185.3" y2="584.3"/>
	<line class="norm station line-trip" x1="280.4" y1="600" x2="264.8" y2="615.5"/>
	<line class="norm station line-trip" x1="348.7" y1="669" x2="333.1" y2="684.5"/>
	<line class="norm station line-trip" x1="407.7" y1="728" x2="392.1" y2="743.5"/>
	<line class="norm station line-trip" x1="477.7" y1="800" x2="462.1" y2="815.5"/>
	<line class="norm station line-trip" x1="562.3" y1="854.3" x2="562.3" y2="876.3"/>
	<line class="norm station line-trip" x1="689.3" y1="854.3" x2="689.3" y2="876.3"/>
	<line class="norm station line-trip" x1="823.3" y1="854.3" x2="823.3" y2="876.3"/>
</g>
<g>
	<path class="line line-performance" d="M74,290h573.6h4.2c19.3,0,37.9,7.7,51.5,21.4v0l243,243l0,0c11.9,11.9,28.2,18.7,45.1,18.7h2.7H1233l0,0
		c23.1,0,45.2-9.2,61.5-25.5l6.5-6.5l232-232"/>
	<line class="norm station line-performance" x1="78" y1="290" x2="78" y2="268"/>
	<line class="norm station line-performance" x1="209" y1="290" x2="209" y2="268"/>
	<line class="norm station line-performance" x1="326" y1="290" x2="326" y2="268"/>
	<line class="norm station line-performance" x1="487" y1="290" x2="487" y2="268"/>
	<line class="norm station line-performance" x1="611" y1="290" x2="611" y2="268"/>
	<line class="norm station line-performance" x1="741.3" y1="346" x2="756.9" y2="330.4"/>
	<line class="norm station line-performance" x1="829.1" y1="433.6" x2="844.7" y2="418"/>
	<line class="norm station line-performance" x1="1065" y1="572" x2="1065" y2="550"/>
	<line class="norm station line-performance" x1="1189" y1="572" x2="1189" y2="550"/>
	<line class="norm station line-performance" x1="1330.3" y1="511.9" x2="1314.6" y2="496.4"/>
	<line class="norm station line-performance" x1="1417.4" y1="423.6" x2="1401.7" y2="408.1"/>
	<line class="norm station line-performance" x1="1532.4" y1="313.6" x2="1516.7" y2="298.1"/>
</g>
<g>
	<line class="line line-outdoor" x1="78" y1="209" x2="423" y2="209"/>
	<line class="norm station line-outdoor" x1="82" y1="209" x2="82" y2="187"/>
	<line class="norm station line-outdoor" x1="419" y1="209" x2="419" y2="187"/>
	<line class="norm station line-outdoor" x1="250" y1="209" x2="250" y2="187"/>
</g>
</svg>
